<svg width="18" height="22" viewBox="0 0 18 22" fill="none" xmlns="http://www.w3.org/2000/svg">
<path fill-rule="evenodd" clip-rule="evenodd" d="M10.6784 0C11.8885 0 12.8817 0.943409 12.9593 2.13261L12.9641 2.28249L12.9638 4.02259L15.2293 4.02347C15.7431 4.02347 16.1831 4.35654 16.3312 4.82788L16.3601 4.93902L16.378 5.05454L17.9953 20.6963L18 20.8245C17.9943 21.1133 17.8839 21.3916 17.6884 21.6067C17.4879 21.8258 17.2145 21.9626 16.9224 21.9934L16.7962 22H1.18091C0.848432 22 0.530087 21.8597 0.306822 21.6151C0.110032 21.4003 0.00148203 21.1196 0 20.8306L0.00597467 20.7064L1.60365 5.06364C1.66034 4.51046 2.09823 4.08377 2.64268 4.02934L2.76088 4.02347L5.03548 4.02259L5.0359 2.28249C5.0359 1.12438 5.90338 0.165293 7.02353 0.0192508L7.17102 0.00486318L7.32108 0H10.6784ZM5.03548 5.2347H2.80511L1.21728 20.7872H16.7838L15.1752 5.2347H12.9638V6.52893L13.0055 6.55105C13.3535 6.75535 13.5895 7.11399 13.6295 7.523L13.6356 7.64711C13.6356 8.35191 13.063 8.92374 12.3573 8.92374C11.6516 8.92374 11.079 8.35191 11.079 7.64711C11.079 7.18725 11.3263 6.77574 11.7091 6.55103L11.7501 6.52893V5.2347H6.24918V6.52893L6.29094 6.55105C6.63894 6.75535 6.87495 7.11399 6.91499 7.523L6.92104 7.64711C6.92104 8.35191 6.34845 8.92374 5.64274 8.92374C4.93703 8.92374 4.36444 8.35191 4.36444 7.64711C4.36444 7.18725 4.61175 6.77574 4.99456 6.55103L5.03548 6.52893V5.2347ZM10.6784 1.2121L10.7878 1.21764C11.3275 1.27258 11.7505 1.72941 11.7505 2.28249L11.7501 4.02259H6.24918L6.24958 2.28249L6.25513 2.17324C6.31012 1.63433 6.76742 1.2121 7.32108 1.2121H10.6784Z" fill="#444444"/>
</svg>
